<svg xmlns="http://www.w3.org/2000/svg" width="500" height="500" viewBox="0 0 500 500" version="1.1"><path d="M 145.455 93.455 C 143.678 95.232, 143 96.999, 143 99.857 C 143 104.405, 133.962 95.431, 251.491 207.577 C 288.336 242.735, 324.019 276.788, 330.785 283.250 C 342.295 294.243, 343.345 295, 347.089 295 C 352.683 295, 356 291.598, 356 285.862 C 356 282.026, 355.466 281.117, 350.250 276.067 C 339.884 266.032, 171.951 105.876, 163.900 98.346 C 156.803 91.709, 155.652 91, 151.977 91 C 148.991 91, 147.256 91.653, 145.455 93.455 M 97.105 225.196 C 89.705 229.159, 88.748 232.034, 89.347 248.500 C 91.277 301.559, 119.754 352.926, 163.468 382.199 C 181.552 394.308, 200.936 402.137, 222.848 406.179 L 234.500 408.328 234.500 424.914 C 234.500 443.167, 235.217 445.843, 241.323 450.395 C 245.290 453.352, 254.710 453.352, 258.677 450.395 C 264.795 445.835, 265.500 443.184, 265.500 424.753 C 265.500 415.542, 265.759 408.004, 266.075 408.003 C 269.987 407.985, 290.795 403.277, 298.591 400.646 C 362.313 379.137, 408.207 316.633, 410.670 248 C 411.241 232.087, 410.232 229.125, 402.895 225.196 C 394.548 220.726, 384.799 224.416, 381.659 233.233 C 380.823 235.580, 379.891 242.675, 379.586 249 C 377.004 302.677, 340.657 352.602, 291.234 370.358 C 273.481 376.736, 252.556 379.068, 235.087 376.616 C 219.162 374.380, 210.379 371.753, 196.500 365.077 C 152.096 343.719, 123.542 299.622, 120.118 247.120 C 119.209 233.174, 117.975 229.542, 112.924 225.946 C 108.263 222.627, 102.420 222.350, 97.105 225.196" stroke="none" fill="#343c54" fill-rule="evenodd"/><path d="M 231 48.492 C 206.077 53.491, 184.304 67.631, 168.538 89.059 C 165.931 92.602, 163.432 95.728, 162.984 96.007 C 162.536 96.286, 169.218 103.235, 177.834 111.451 C 186.451 119.667, 192.053 124.833, 190.285 122.932 L 187.069 119.476 189.601 115.020 C 196.202 103.399, 208.720 91.628, 220.464 85.998 C 238.225 77.484, 253.257 76.465, 271.177 82.560 C 291.733 89.552, 309.259 107.559, 316.373 129 C 324.067 152.187, 326.010 206.824, 320.402 242.329 L 319.797 246.158 317.149 243.864 C 315.692 242.602, 321.205 248.079, 329.401 256.035 C 337.596 263.991, 344.853 270.635, 345.528 270.800 C 347.189 271.205, 350.631 258.142, 352.480 244.413 C 355.436 222.470, 356.461 196.320, 355.199 175.040 C 353.035 138.528, 349.905 123.529, 340.453 104.368 C 325.888 74.844, 298.050 53.626, 266.566 48.051 C 258.595 46.639, 239.027 46.882, 231 48.492 M 147.500 109 C 150.209 111.750, 152.650 114, 152.925 114 C 153.200 114, 151.209 111.750, 148.500 109 C 145.791 106.250, 143.350 104, 143.075 104 C 142.800 104, 144.791 106.250, 147.500 109 M 152.039 121.869 C 142.023 155.502, 141.764 230.090, 151.544 264.794 C 159.722 293.815, 181.076 319.914, 206.453 331.904 C 252.030 353.438, 304.047 339.287, 332.938 297.496 L 337.991 290.186 326.375 279.093 C 319.986 272.992, 314.475 268.009, 314.129 268.019 C 313.783 268.030, 311.790 270.962, 309.701 274.535 C 294.535 300.469, 264.162 314.539, 236.134 308.616 C 211.310 303.370, 190.138 282.931, 182.666 257 C 176.676 236.212, 174.653 188.104, 178.408 155.745 C 179.875 143.101, 179.990 139.693, 178.989 138.486 C 178.302 137.659, 172.426 132.011, 165.930 125.934 L 154.119 114.886 152.039 121.869 M 209.500 142 C 212.209 144.750, 214.650 147, 214.925 147 C 215.200 147, 213.209 144.750, 210.500 142 C 207.791 139.250, 205.350 137, 205.075 137 C 204.800 137, 206.791 139.250, 209.500 142 M 191 150.500 C 193.987 153.525, 196.657 156, 196.932 156 C 197.207 156, 194.987 153.525, 192 150.500 C 189.013 147.475, 186.343 145, 186.068 145 C 185.793 145, 188.013 147.475, 191 150.500 M 231.500 163 C 234.209 165.750, 236.650 168, 236.925 168 C 237.200 168, 235.209 165.750, 232.500 163 C 229.791 160.250, 227.350 158, 227.075 158 C 226.800 158, 228.791 160.250, 231.500 163 M 212.500 171 C 215.209 173.750, 217.650 176, 217.925 176 C 218.200 176, 216.209 173.750, 213.500 171 C 210.791 168.250, 208.350 166, 208.075 166 C 207.800 166, 209.791 168.250, 212.500 171 M 253.500 184 C 256.209 186.750, 258.650 189, 258.925 189 C 259.200 189, 257.209 186.750, 254.500 184 C 251.791 181.250, 249.350 179, 249.075 179 C 248.800 179, 250.791 181.250, 253.500 184 M 234.500 192 C 237.209 194.750, 239.650 197, 239.925 197 C 240.200 197, 238.209 194.750, 235.500 192 C 232.791 189.250, 230.350 187, 230.075 187 C 229.800 187, 231.791 189.250, 234.500 192 M 275.500 205 C 278.209 207.750, 280.650 210, 280.925 210 C 281.200 210, 279.209 207.750, 276.500 205 C 273.791 202.250, 271.350 200, 271.075 200 C 270.800 200, 272.791 202.250, 275.500 205 M 256.500 213 C 259.209 215.750, 261.650 218, 261.925 218 C 262.200 218, 260.209 215.750, 257.500 213 C 254.791 210.250, 252.350 208, 252.075 208 C 251.800 208, 253.791 210.250, 256.500 213 M 297.500 226 C 300.209 228.750, 302.650 231, 302.925 231 C 303.200 231, 301.209 228.750, 298.500 226 C 295.791 223.250, 293.350 221, 293.075 221 C 292.800 221, 294.791 223.250, 297.500 226 M 278.500 234 C 281.209 236.750, 283.650 239, 283.925 239 C 284.200 239, 282.209 236.750, 279.500 234 C 276.791 231.250, 274.350 229, 274.075 229 C 273.800 229, 275.791 231.250, 278.500 234 M 88.336 242 C 88.336 246.125, 88.513 247.813, 88.728 245.750 C 88.944 243.688, 88.944 240.313, 88.728 238.250 C 88.513 236.188, 88.336 237.875, 88.336 242 M 411.328 242.500 C 411.333 246.350, 411.513 247.802, 411.730 245.728 C 411.946 243.653, 411.943 240.503, 411.722 238.728 C 411.501 236.952, 411.324 238.650, 411.328 242.500 M 120.232 251 C 120.232 252.925, 120.438 253.713, 120.689 252.750 C 120.941 251.787, 120.941 250.213, 120.689 249.250 C 120.438 248.287, 120.232 249.075, 120.232 251 M 379.232 251 C 379.232 252.925, 379.438 253.713, 379.689 252.750 C 379.941 251.787, 379.941 250.213, 379.689 249.250 C 379.438 248.287, 379.232 249.075, 379.232 251 M 300.500 255 C 303.209 257.750, 305.650 260, 305.925 260 C 306.200 260, 304.209 257.750, 301.500 255 C 298.791 252.250, 296.350 250, 296.075 250 C 295.800 250, 297.791 252.250, 300.500 255 M 356.232 286 C 356.232 287.925, 356.438 288.712, 356.689 287.750 C 356.941 286.788, 356.941 285.212, 356.689 284.250 C 356.438 283.288, 356.232 284.075, 356.232 286 M 160 339.500 C 161.866 341.425, 163.617 343, 163.892 343 C 164.167 343, 162.866 341.425, 161 339.500 C 159.134 337.575, 157.383 336, 157.108 336 C 156.833 336, 158.134 337.575, 160 339.500 M 129 352.313 C 129 352.485, 130.463 353.948, 132.250 355.563 L 135.500 358.500 132.563 355.250 C 129.825 352.221, 129 351.540, 129 352.313 M 359.978 362.750 L 351.500 371.500 360.250 363.022 C 368.377 355.148, 369.456 354, 368.728 354 C 368.578 354, 364.641 357.938, 359.978 362.750 M 245.776 377.733 C 248.128 377.945, 251.728 377.942, 253.776 377.727 C 255.824 377.512, 253.900 377.339, 249.500 377.343 C 245.100 377.346, 243.424 377.522, 245.776 377.733" stroke="none" fill="#0594fb" fill-rule="evenodd"/></svg>