<svg width="500" height="500" viewBox="0 0 500 500" fill="none" xmlns="http://www.w3.org/2000/svg">
<path fill-rule="evenodd" clip-rule="evenodd" d="M145.455 93.455C143.678 95.232 143 96.999 143 99.857C143 104.405 133.962 95.431 251.491 207.577C288.336 242.735 324.019 276.788 330.785 283.25C342.295 294.243 343.345 295 347.089 295C352.683 295 356 291.598 356 285.862C356 282.026 355.466 281.117 350.25 276.067C339.884 266.032 171.951 105.876 163.9 98.346C156.803 91.709 155.652 91 151.977 91C148.991 91 147.256 91.653 145.455 93.455ZM97.105 225.196C89.705 229.159 88.748 232.034 89.347 248.5C91.277 301.559 119.754 352.926 163.468 382.199C181.552 394.308 200.936 402.137 222.848 406.179L234.5 408.328V424.914C234.5 443.167 235.217 445.843 241.323 450.395C245.29 453.352 254.71 453.352 258.677 450.395C264.795 445.835 265.5 443.184 265.5 424.753C265.5 415.542 265.759 408.004 266.075 408.003C269.987 407.985 290.795 403.277 298.591 400.646C362.313 379.137 408.207 316.633 410.67 248C411.241 232.087 410.232 229.125 402.895 225.196C394.548 220.726 384.799 224.416 381.659 233.233C380.823 235.58 379.891 242.675 379.586 249C377.004 302.677 340.657 352.602 291.234 370.358C273.481 376.736 252.556 379.068 235.087 376.616C219.162 374.38 210.379 371.753 196.5 365.077C152.096 343.719 123.542 299.622 120.118 247.12C119.209 233.174 117.975 229.542 112.924 225.946C108.263 222.627 102.42 222.35 97.105 225.196Z" fill="#343C54"/>
<path fill-rule="evenodd" clip-rule="evenodd" d="M231 48.492C206.077 53.491 184.304 67.631 168.538 89.059C165.931 92.602 163.432 95.728 162.984 96.007C162.536 96.286 169.218 103.235 177.834 111.451C186.451 119.667 192.053 124.833 190.285 122.932L187.069 119.476L189.601 115.02C196.202 103.399 208.72 91.628 220.464 85.998C238.225 77.484 253.257 76.465 271.177 82.56C291.733 89.552 309.259 107.559 316.373 129C324.067 152.187 326.01 206.824 320.402 242.329L319.797 246.158L317.149 243.864C315.692 242.602 321.205 248.079 329.401 256.035C337.596 263.991 344.853 270.635 345.528 270.8C347.189 271.205 350.631 258.142 352.48 244.413C355.436 222.47 356.461 196.32 355.199 175.04C353.035 138.528 349.905 123.529 340.453 104.368C325.888 74.844 298.05 53.626 266.566 48.051C258.595 46.639 239.027 46.882 231 48.492ZM147.5 109C150.209 111.75 152.65 114 152.925 114C153.2 114 151.209 111.75 148.5 109C145.791 106.25 143.35 104 143.075 104C142.8 104 144.791 106.25 147.5 109ZM152.039 121.869C142.023 155.502 141.764 230.09 151.544 264.794C159.722 293.815 181.076 319.914 206.453 331.904C252.03 353.438 304.047 339.287 332.938 297.496L337.991 290.186L326.375 279.093C319.986 272.992 314.475 268.009 314.129 268.019C313.783 268.03 311.79 270.962 309.701 274.535C294.535 300.469 264.162 314.539 236.134 308.616C211.31 303.37 190.138 282.931 182.666 257C176.676 236.212 174.653 188.104 178.408 155.745C179.875 143.101 179.99 139.693 178.989 138.486C178.302 137.659 172.426 132.011 165.93 125.934L154.119 114.886L152.039 121.869ZM209.5 142C212.209 144.75 214.65 147 214.925 147C215.2 147 213.209 144.75 210.5 142C207.791 139.25 205.35 137 205.075 137C204.8 137 206.791 139.25 209.5 142ZM191 150.5C193.987 153.525 196.657 156 196.932 156C197.207 156 194.987 153.525 192 150.5C189.013 147.475 186.343 145 186.068 145C185.793 145 188.013 147.475 191 150.5ZM231.5 163C234.209 165.75 236.65 168 236.925 168C237.2 168 235.209 165.75 232.5 163C229.791 160.25 227.35 158 227.075 158C226.8 158 228.791 160.25 231.5 163ZM212.5 171C215.209 173.75 217.65 176 217.925 176C218.2 176 216.209 173.75 213.5 171C210.791 168.25 208.35 166 208.075 166C207.8 166 209.791 168.25 212.5 171ZM253.5 184C256.209 186.75 258.65 189 258.925 189C259.2 189 257.209 186.75 254.5 184C251.791 181.25 249.35 179 249.075 179C248.8 179 250.791 181.25 253.5 184ZM234.5 192C237.209 194.75 239.65 197 239.925 197C240.2 197 238.209 194.75 235.5 192C232.791 189.25 230.35 187 230.075 187C229.8 187 231.791 189.25 234.5 192ZM275.5 205C278.209 207.75 280.65 210 280.925 210C281.2 210 279.209 207.75 276.5 205C273.791 202.25 271.35 200 271.075 200C270.8 200 272.791 202.25 275.5 205ZM256.5 213C259.209 215.75 261.65 218 261.925 218C262.2 218 260.209 215.75 257.5 213C254.791 210.25 252.35 208 252.075 208C251.8 208 253.791 210.25 256.5 213ZM297.5 226C300.209 228.75 302.65 231 302.925 231C303.2 231 301.209 228.75 298.5 226C295.791 223.25 293.35 221 293.075 221C292.8 221 294.791 223.25 297.5 226ZM278.5 234C281.209 236.75 283.65 239 283.925 239C284.2 239 282.209 236.75 279.5 234C276.791 231.25 274.35 229 274.075 229C273.8 229 275.791 231.25 278.5 234ZM88.336 242C88.336 246.125 88.513 247.813 88.728 245.75C88.944 243.688 88.944 240.313 88.728 238.25C88.513 236.188 88.336 237.875 88.336 242ZM411.328 242.5C411.333 246.35 411.513 247.802 411.73 245.728C411.946 243.653 411.943 240.503 411.722 238.728C411.501 236.952 411.324 238.65 411.328 242.5ZM120.232 251C120.232 252.925 120.438 253.713 120.689 252.75C120.941 251.787 120.941 250.213 120.689 249.25C120.438 248.287 120.232 249.075 120.232 251ZM379.232 251C379.232 252.925 379.438 253.713 379.689 252.75C379.941 251.787 379.941 250.213 379.689 249.25C379.438 248.287 379.232 249.075 379.232 251ZM300.5 255C303.209 257.75 305.65 260 305.925 260C306.2 260 304.209 257.75 301.5 255C298.791 252.25 296.35 250 296.075 250C295.8 250 297.791 252.25 300.5 255ZM356.232 286C356.232 287.925 356.438 288.712 356.689 287.75C356.941 286.788 356.941 285.212 356.689 284.25C356.438 283.288 356.232 284.075 356.232 286ZM160 339.5C161.866 341.425 163.617 343 163.892 343C164.167 343 162.866 341.425 161 339.5C159.134 337.575 157.383 336 157.108 336C156.833 336 158.134 337.575 160 339.5ZM129 352.313C129 352.485 130.463 353.948 132.25 355.563L135.5 358.5L132.563 355.25C129.825 352.221 129 351.54 129 352.313ZM359.978 362.75L351.5 371.5L360.25 363.022C368.377 355.148 369.456 354 368.728 354C368.578 354 364.641 357.938 359.978 362.75ZM245.776 377.733C248.128 377.945 251.728 377.942 253.776 377.727C255.824 377.512 253.9 377.339 249.5 377.343C245.1 377.346 243.424 377.522 245.776 377.733Z" fill="#343C54"/>
</svg>
