<svg width="800" height="800" viewBox="0 0 800 800" fill="none" xmlns="http://www.w3.org/2000/svg">
<path d="M658.333 381.77C658.333 367.963 647.14 356.77 633.333 356.77C619.527 356.77 608.333 367.963 608.333 381.77H658.333ZM191.667 381.77C191.667 367.963 180.474 356.77 166.667 356.77C152.86 356.77 141.667 367.963 141.667 381.77H191.667ZM375 700C375 713.81 386.193 725 400 725C413.807 725 425 713.81 425 700H375ZM608.333 381.77C608.333 506.07 513.69 604.283 400 604.283V654.283C544.043 654.283 658.333 530.867 658.333 381.77H608.333ZM400 604.283C286.31 604.283 191.667 506.07 191.667 381.77H141.667C141.667 530.867 255.957 654.283 400 654.283V604.283ZM375 629.283V700H425V629.283H375Z" fill="#363853"/>
<path d="M384.94 126.375L388.68 125.831L381.477 76.352L377.74 76.8963L384.94 126.375ZM411.613 125.831L414.84 126.3L422.04 76.8213L418.817 76.352L411.613 125.831ZM414.77 495.853L411.443 496.33L418.54 545.823L421.867 545.347L414.77 495.853ZM388.85 496.33L385.01 495.78L377.913 545.273L381.753 545.823L388.85 496.33ZM411.443 496.33C403.943 497.403 396.347 497.403 388.85 496.33L381.753 545.823C393.957 547.573 406.333 547.573 418.54 545.823L411.443 496.33ZM388.68 125.831C396.29 124.723 404.003 124.723 411.613 125.831L418.817 76.352C406.43 74.5493 393.863 74.5493 381.477 76.352L388.68 125.831ZM287.394 393.443C279.361 338.937 279.367 283.387 287.4 228.876L237.935 221.586C229.189 280.927 229.182 341.39 237.928 400.733L287.394 393.443ZM512.807 229.409C520.707 283.574 520.713 338.75 512.813 392.91L562.29 400.13C570.89 341.18 570.883 281.139 562.283 222.192L512.807 229.409ZM512.813 392.91C504.83 447.637 464.207 488.763 414.77 495.853L421.867 545.347C494.953 534.867 551.367 475.017 562.29 400.13L512.813 392.91ZM562.283 222.192C551.367 147.365 495.067 87.45 422.04 76.8213L414.84 126.3C464.247 133.491 504.823 174.689 512.807 229.409L562.283 222.192ZM287.4 228.876C295.42 174.459 335.803 133.527 384.94 126.375L377.74 76.8963C305.014 87.481 248.914 147.09 237.935 221.586L287.4 228.876ZM237.928 400.733C248.916 475.29 305.126 534.837 377.913 545.273L385.01 495.78C335.84 488.727 295.415 447.867 287.394 393.443L237.928 400.733Z" fill="#363853"/>
</svg>
